<svg id="Layer_1" data-name="Layer 1" xmlns="http://www.w3.org/2000/svg" viewBox="0 0 858.49 475.97"><defs><style>.cls-1,.cls-2{fill:none;stroke:#000;stroke-miterlimit:10;stroke-width:7px;}.cls-1{stroke-linecap:round;}</style></defs><title>Logo portflio</title><path class="cls-1" d="M259.42,16.33H410.28a60.18,60.18,0,0,1,60,60V271.65" transform="translate(364.99 -12.83)"/><line class="cls-1" x1="514.44" y1="298.8" x2="553.38" y2="282.95"/><line class="cls-1" x1="560.37" y1="298.8" x2="520.18" y2="315.17"/><line class="cls-1" x1="854.99" y1="241.11" x2="619.41" y2="241.11"/><circle cx="510.2" cy="241.11" r="23.71"/><path class="cls-1" d="M135.2,485.3A252.29,252.29,0,0,1,11,271.65" transform="translate(364.99 -12.83)"/><path class="cls-2" d="M11,271.65A251.43,251.43,0,0,1,23.4,190.37c34.21-105.26,131.18-172.59,236-174" transform="translate(364.99 -12.83)"/><line class="cls-2" x1="0.46" y1="283.23" x2="239.37" y2="251.58"/><circle cx="269.61" cy="247.57" r="16.5"/><circle class="cls-2" cx="188.4" cy="230.32" r="146"/><rect class="cls-2" x="42.36" y="80.28" width="296.08" height="296.08"/></svg>