<?xml version="1.0" standalone="no"?>
<!DOCTYPE svg PUBLIC "-//W3C//DTD SVG 20010904//EN"
 "http://www.w3.org/TR/2001/REC-SVG-20010904/DTD/svg10.dtd">
<svg version="1.0" xmlns="http://www.w3.org/2000/svg"
 width="700.000000pt" height="700.000000pt" viewBox="0 0 700.000000 700.000000"
 preserveAspectRatio="xMidYMid meet">
<metadata>
Created by potrace 1.11, written by Peter Selinger 2001-2013
</metadata>
<g transform="translate(0.000000,700.000000) scale(0.100000,-0.100000)"
fill="#000000" stroke="none">
<path d="M3707 6904 c-1 -1 -54 -4 -117 -8 -167 -8 -362 -34 -545 -71 -422
-86 -910 -292 -1274 -538 -31 -21 -72 -48 -91 -61 -126 -84 -329 -257 -495
-423 -303 -303 -595 -740 -754 -1128 -18 -44 -39 -93 -46 -110 -33 -73 -134
-390 -149 -468 -3 -12 -14 -67 -26 -122 -25 -119 -26 -126 -40 -235 -6 -47
-13 -96 -15 -110 -19 -104 -25 -495 -11 -675 6 -91 29 -272 41 -335 3 -13 7
-40 10 -60 4 -28 45 -203 70 -303 17 -69 76 -244 122 -361 182 -469 453 -885
808 -1241 226 -227 353 -331 595 -490 161 -106 196 -123 243 -119 101 10 166
138 111 222 -16 24 -31 36 -189 139 -632 414 -1112 1036 -1351 1750 -62 186
-123 439 -139 576 -3 25 -8 55 -10 67 -2 12 -7 57 -11 99 -3 42 -8 92 -10 111
-5 52 -4 408 1 460 3 25 7 70 10 101 5 62 11 104 25 189 5 30 12 73 16 94 11
75 73 312 112 431 228 696 667 1288 1270 1712 65 45 128 88 142 95 14 7 27 15
30 19 25 27 301 168 470 239 174 74 459 161 630 195 56 11 215 35 265 41 33 3
69 9 80 12 11 3 569 7 1240 9 1048 2 1230 1 1288 -12 283 -62 503 -297 543
-584 9 -60 9 -3577 0 -3660 -29 -274 -247 -519 -524 -588 -60 -15 -183 -17
-1188 -18 -1088 -1 -1122 -2 -1154 -21 -54 -31 -75 -68 -75 -128 1 -38 7 -61
24 -84 47 -67 -38 -63 1239 -59 1148 3 1158 3 1231 24 145 42 253 96 361 178
201 154 347 404 377 650 10 74 10 3682 1 3745 -65 440 -411 786 -848 846 -43
6 -2286 14 -2293 8z"/>
<path d="M2034 2062 c-228 -46 -392 -260 -379 -493 9 -141 75 -266 189 -353
43 -33 66 -45 138 -74 22 -9 142 -28 158 -25 3 0 28 4 57 7 174 20 332 152
390 326 17 51 21 84 18 155 -3 108 -6 120 -46 204 -39 80 -131 175 -209 213
-99 49 -205 63 -316 40z m202 -314 c93 -63 105 -208 22 -285 -87 -82 -235 -57
-289 49 -30 58 -22 144 16 194 57 75 174 94 251 42z"/>
<path d="M2753 1113 c-339 -175 -450 -237 -465 -256 -37 -47 -12 -128 46 -147
27 -9 42 -8 77 6 24 10 49 20 54 24 11 8 238 127 375 197 87 44 120 78 120
122 0 31 -20 68 -44 80 -48 24 -73 20 -163 -26z"/>
<path d="M2913 843 c-48 -25 -124 -64 -168 -88 -44 -23 -130 -68 -192 -100
-62 -31 -119 -68 -128 -81 -32 -50 -8 -125 47 -143 33 -11 86 -3 111 17 7 5
89 49 182 97 343 177 356 186 349 244 -7 59 -31 85 -87 95 -18 3 -53 -9 -114
-41z"/>
</g>
</svg>
