<svg version="1.2" xmlns="http://www.w3.org/2000/svg" viewBox="0 0 1080 1080" width="1080" height="1080">
	<title>logo-ai</title>
	<style>
		.s0 { fill: #d8bf37 } 
	</style>
	<rect width="1080" height="1080" id="Layer 2" style="fill: #272727"/>
	<g id="Layer 1">
		<g id="&lt;Group&gt;">
			<g id="&lt;Group&gt;">
				<g id="&lt;Group&gt;">
					<path id="&lt;Path&gt;" class="s0" d="m963.7 353.4q11.4 7 22.7 14c9.3 5.7 23.3 3 28.8-6.8 5.5-9.9 3.1-22.6-6.8-28.8q-11.4-7-22.7-14c-9.3-5.7-23.3-3-28.8 6.8-5.5 9.9-3.1 22.6 6.8 28.8z"/>
				</g>
			</g>
			<g id="&lt;Group&gt;">
				<g id="&lt;Group&gt;">
					<path id="&lt;Path&gt;" class="s0" d="m710.6 94q7.7 12.7 15.4 25.4c5 8.3 17.1 11.8 25.4 6.3 8.3-5.6 11.6-16.6 6.2-25.4q-7.7-12.7-15.4-25.4c-5-8.3-17-11.8-25.3-6.3-8.4 5.6-11.6 16.6-6.3 25.4z"/>
				</g>
			</g>
			<g id="&lt;Group&gt;">
				<g id="&lt;Group&gt;">
					<path id="&lt;Path&gt;" class="s0" d="m978.3 350.7q0 163.8 0 327.6 0 23.1 0 46.2c0 25.8 40 25.8 40 0q0-163.8 0-327.6 0-23.1 0-46.2c0-25.8-40-25.8-40 0z"/>
				</g>
			</g>
			<g id="&lt;Group&gt;">
				<g id="&lt;Group&gt;">
					<path id="&lt;Path&gt;" class="s0" d="m984.1 711.7q-116.3 116.3-232.6 232.6-16.4 16.4-32.8 32.8c-18.3 18.2 10 46.5 28.3 28.3q116.3-116.3 232.6-232.6 16.4-16.4 32.8-32.8c18.2-18.3-10-46.6-28.3-28.3z"/>
				</g>
			</g>
			<g id="&lt;Group&gt;">
				<g id="&lt;Group&gt;">
					<path id="&lt;Path&gt;" class="s0" d="m725.1 65.2q-165.1 0-330.1 0-23.8 0-47.5 0c-25.8 0-25.8 40 0 40q165 0 330.1 0 23.7 0 47.5 0c25.7 0 25.8-40 0-40z"/>
				</g>
			</g>
			<g id="&lt;Group&gt;">
				<g id="&lt;Group&gt;">
					<path id="&lt;Path&gt;" class="s0" d="m332 71.1q-116.3 116.3-232.6 232.6-16.4 16.4-32.8 32.8c-18.2 18.3 10 46.5 28.3 28.3q116.3-116.3 232.6-232.6 16.4-16.4 32.8-32.8c18.3-18.3-10-46.6-28.3-28.3z"/>
				</g>
			</g>
			<g id="&lt;Group&gt;">
				<g id="&lt;Group&gt;">
					<path id="&lt;Path&gt;" class="s0" d="m61 349.9q0 165.1 0 330.1 0 23.8 0 47.5c0 25.8 40 25.8 40 0q0-165 0-330.1 0-23.7 0-47.5c0-25.7-40-25.8-40 0z"/>
				</g>
			</g>
			<g id="&lt;Group&gt;">
				<g id="&lt;Group&gt;">
					<path id="&lt;Path&gt;" class="s0" d="m68.6 742.7q116.3 116.3 232.6 232.6 16.4 16.4 32.8 32.8c18.3 18.3 46.6-10 28.3-28.2q-116.3-116.3-232.6-232.6-16.4-16.5-32.8-32.9c-18.2-18.2-46.5 10.1-28.3 28.3z"/>
				</g>
			</g>
			<g id="&lt;Group&gt;">
				<g id="&lt;Group&gt;">
					<path id="&lt;Path&gt;" class="s0" d="m350.2 1015q165 0 330.1 0 23.8 0 47.5 0c25.7 0 25.8-40 0-40q-165 0-330.1 0-23.8 0-47.5 0c-25.7 0-25.8 40 0 40z"/>
				</g>
			</g>
			<g id="&lt;Group&gt;">
				<g id="&lt;Group&gt;">
					<path id="&lt;Path&gt;" class="s0" d="m719.5 616q116.3-116.3 232.6-232.6 16.4-16.4 32.9-32.8c18.2-18.2-10.1-46.5-28.3-28.3q-116.3 116.3-232.6 232.6-16.4 16.4-32.9 32.9c-18.2 18.2 10.1 46.5 28.3 28.2z"/>
				</g>
			</g>
			<g id="&lt;Group&gt;">
				<g id="&lt;Group&gt;">
					<path id="&lt;Path&gt;" class="s0" d="m725.9 96.5q-116.3 116.3-232.6 232.6-16.4 16.4-32.9 32.9c-18.2 18.2 10.1 46.5 28.3 28.2q116.3-116.3 232.6-232.6 16.4-16.4 32.9-32.8c18.2-18.2-10.1-46.5-28.3-28.3z"/>
				</g>
			</g>
			<g id="&lt;Group&gt;">
				<g id="&lt;Group&gt;">
					<g id="&lt;Group&gt;">
						<path id="&lt;Path&gt;" class="s0" d="m591.4 397.6q46.8 46.7 93.5 93.5c17.9 17.9 45.7-9.9 27.8-27.8q-46.7-46.8-93.5-93.5c-17.9-17.9-45.7 9.9-27.8 27.8z"/>
					</g>
				</g>
				<g id="&lt;Group&gt;">
					<g id="&lt;Group&gt;">
						<path id="&lt;Path&gt;" class="s0" d="m680.3 478.6q0 64.4 0 128.8c0 24.8 38.4 24.8 38.4 0q0-64.4 0-128.8c0-24.8-38.4-24.8-38.4 0z"/>
					</g>
				</g>
				<g id="&lt;Group&gt;">
					<g id="&lt;Group&gt;">
						<path id="&lt;Path&gt;" class="s0" d="m685.8 593.8q-46.1 47.9-92.2 95.7c-17.7 18.4 10.8 45.8 28.5 27.4q46.1-47.8 92.2-95.7c17.6-18.3-10.8-45.8-28.5-27.4z"/>
					</g>
				</g>
				<g id="&lt;Group&gt;">
					<g id="&lt;Group&gt;">
						<path id="&lt;Path&gt;" class="s0" d="m605 363.8q-67.7 0-135.3 0c-25.8 0-25.8 40 0 40q67.6 0 135.3 0c25.8 0 25.8-40 0-40z"/>
					</g>
				</g>
				<g id="&lt;Group&gt;">
					<g id="&lt;Group&gt;">
						<path id="&lt;Path&gt;" class="s0" d="m455.8 366.6q-47.5 47.6-95.1 95.2c-18.2 18.2 10 46.5 28.3 28.3q47.6-47.6 95.1-95.2c18.3-18.2-10-46.5-28.3-28.3z"/>
					</g>
				</g>
				<g id="&lt;Group&gt;">
					<g id="&lt;Group&gt;">
						<path id="&lt;Path&gt;" class="s0" d="m354.9 475.9q0 66.2 0 132.5c0 25.2 39.2 25.2 39.2 0q0-66.3 0-132.5c0-25.2-39.2-25.2-39.2 0z"/>
					</g>
				</g>
				<g id="&lt;Group&gt;">
					<g id="&lt;Group&gt;">
						<path id="&lt;Path&gt;" class="s0" d="m361.7 623.1q47.6 47.6 95.1 95.2c18.3 18.2 46.6-10.1 28.3-28.3q-47.5-47.6-95.1-95.2c-18.2-18.2-46.5 10.1-28.3 28.3z"/>
					</g>
				</g>
				<g id="&lt;Group&gt;">
					<g id="&lt;Group&gt;">
						<path id="&lt;Path&gt;" class="s0" d="m471 724.1q67.7 0 135.4 0c25.7 0 25.7-40 0-40q-67.7 0-135.4 0c-25.7 0-25.8 40 0 40z"/>
					</g>
				</g>
			</g>
			<g id="&lt;Group&gt;">
				<g id="&lt;Group&gt;">
				</g>
			</g>
			<g id="&lt;Group&gt;">
				<g id="&lt;Group&gt;">
				</g>
			</g>
		</g>
	</g>
</svg>